<?xml version="1.0" encoding="UTF-8"?><svg id="Layer_2" xmlns="http://www.w3.org/2000/svg" viewBox="0 0 528.3 144"><defs><style>.cls-1{fill:#231f20;}</style></defs><g id="type"><g><path class="cls-1" d="m176.64,16.02v10.13h-1.74v-10.13h-4.01v-1.53h9.76v1.53h-4.01Z"/><path class="cls-1" d="m191.76,26.15v-4.49h-6.46v4.49h-1.74v-11.66h1.74v3.72h6.46v-3.72h1.74v11.66h-1.74Zm0-6.68h-6.46v.95h6.46v-.95Z"/><path class="cls-1" d="m198.25,26.15v-11.66h6.33v1.53h-4.59v2.74h4.25v1.53h-4.25v4.33h5.25v1.53h-6.99Z"/><g><path class="cls-1" d="m367.39,117.91h-5.22v14.51h-5.38v-36.03h11.25c7.34,0,12.23,4.32,12.23,10.76,0,5.95-6.03,10.76-12.88,10.76Zm.57-16.79h-5.79v12.06h5.22c3.83,0,7.5-2.61,7.5-6.03,0-3.83-2.61-6.03-6.93-6.03Z"/><path class="cls-1" d="m389.44,132.42v-36.03h5.38v31.3h16.95v4.73h-22.34Z"/><path class="cls-1" d="m451.28,132.42h-31.22l-.98-1.55,15.41-35.38h2.28l15.65,35.7-1.14,1.22Zm-15.65-26.41l-9.38,21.68h18.83l-9.46-21.68Z"/><path class="cls-1" d="m487.47,132.42v-31.3h-17.93v31.3h-5.38v-36.03h28.69v36.03h-5.38Z"/><path class="cls-1" d="m505.72,132.42v-36.03h19.56v4.73h-14.18v8.48h13.12v4.73h-13.12v13.37h16.22v4.73h-21.6Z"/></g><g><path class="cls-1" d="m175.47,44.93l-4.08-4.08,4.08-4.08,4.08,4.08-4.08,4.08Zm-2.69,40.76v-36.1h5.39v36.1h-5.39Z"/><path class="cls-1" d="m227.58,85.69v-30.55l-11.68,3.43v27.12h-5.39v-27.12l-11.68-3.43v30.55h-5.39v-37.09l19.77,5.8,19.77-5.8v37.09h-5.39Z"/><path class="cls-1" d="m281.81,85.69v-30.55l-11.68,3.43v27.12h-5.39v-27.12l-11.68-3.43v30.55h-5.39v-37.09l19.77,5.8,19.77-5.8v37.09h-5.39Z"/><path class="cls-1" d="m330,85.69h-31.29l-.98-1.55,15.44-35.45h2.29l15.68,35.78-1.14,1.23Zm-15.68-26.47l-9.39,21.73h18.87l-9.48-21.73Z"/><path class="cls-1" d="m372.46,85.69v-36.1h19.61v4.74h-14.21v8.5h13.15v4.74h-13.15v13.4h16.26v4.74h-21.65Z"/><path class="cls-1" d="m429.31,85.69l-14.87-14.87h-3.84v14.87h-5.47v-36.1h11.35c7.35,0,12.25,4.33,12.25,10.78,0,4.41-3.43,8.09-7.84,9.56l15.77,15.77h-7.35Zm-12.91-31.45h-5.8v12.09h5.23c3.84,0,7.52-2.61,7.52-6.04,0-3.84-2.61-6.04-6.94-6.04Z"/><path class="cls-1" d="m448.42,44.93l-4.08-4.08,4.08-4.08,4.08,4.08-4.08,4.08Zm-2.69,40.76v-36.1h5.39v36.1h-5.39Z"/><path class="cls-1" d="m494.49,85.69h-31.29l-.98-1.55,15.44-35.45h2.29l15.68,35.78-1.14,1.23Zm-15.68-26.47l-9.39,21.73h18.87l-9.48-21.73Z"/><path class="cls-1" d="m505.91,85.69v-36.1h5.39v31.37h16.99v4.74h-22.38Z"/><polygon class="cls-1" points="351.07 63.96 351.07 49.59 345.68 49.59 345.68 63.96 330.78 63.96 330.78 63.97 330.78 68.7 330.78 68.7 345.67 68.7 345.67 85.69 351.07 85.69 351.07 68.7 365.96 68.7 365.96 68.7 365.96 63.97 365.96 63.96 351.07 63.96"/></g></g><g><polygon class="cls-1" points="95.95 67.26 83.99 95.94 95.88 95.94 95.95 67.26"/><path class="cls-1" d="m54.75,113.35l36.92-15.2h-8.96c-.13.05-.26.08-.4.08s-.27-.03-.4-.08h-33.4s6.25,15.2,6.25,15.2Z"/><polygon class="cls-1" points="52.55 45.8 95.4 45.8 89.19 30.71 52.55 45.8"/><polygon class="cls-1" points="47.99 76.8 59.99 48.01 48.05 48.01 47.99 76.8"/><polygon class="cls-1" points="95.99 48.01 67.09 48.01 72.43 50.23 72.44 50.24 95.96 60.04 95.99 48.01"/><polygon class="cls-1" points="89.58 76.79 73.88 92.42 81.7 95.68 89.58 76.79"/><polygon class="cls-1" points="95.62 62.3 76.72 54.42 92.36 70.12 95.62 62.3"/><polygon class="cls-1" points="45.77 82.36 45.84 48.56 30.65 54.81 45.74 91.48 45.77 82.36 45.77 82.36"/><polygon class="cls-1" points="13 71.9 51 110.07 45.82 97.47 45.82 97.47 28.81 56.16 13 71.9"/><polygon class="cls-1" points="47.95 95.94 76.58 95.94 47.97 84.02 47.95 95.94"/><polygon class="cls-1" points="28.42 53.43 28.42 53.43 70.15 11.88 42.46 .34 14.6 67.19 28.42 53.43"/><polygon class="cls-1" points="54.36 67.28 70.06 51.64 62.23 48.38 54.36 67.28"/><polygon class="cls-1" points="48.32 81.77 67.21 89.64 51.58 73.94 48.32 81.77"/><rect class="cls-1" x="58.39" y="58.45" width="27.16" height="27.16" transform="translate(-29.85 71.76) rotate(-44.87)"/><polygon class="cls-1" points="115.52 90.63 115.52 90.64 73.79 132.18 101.48 143.72 129.34 76.87 115.52 90.63"/><polygon class="cls-1" points="0 144 96.39 144 0 103.82 0 144"/><polygon class="cls-1" points="133.53 72.59 103.76 144 144 144 144 47.46 133.53 72.58 133.53 72.59"/><polygon class="cls-1" points="10.41 71.47 40.2 0 0 0 0 96.45 10.41 71.48 10.41 71.47"/><polygon class="cls-1" points=".28 101.54 67.13 129.4 11.82 73.85 .28 101.54"/><polygon class="cls-1" points="72.52 10.47 72.53 10.48 144 40.27 144 0 47.39 0 72.52 10.47"/><polygon class="cls-1" points="110.01 93 56.1 115.19 71.84 131 110.01 93"/><polygon class="cls-1" points="33.93 51.07 46.52 45.88 46.52 45.88 87.84 28.87 72.1 13.06 33.93 51.07"/><polygon class="cls-1" points="98.19 52.58 98.17 61.69 98.17 61.7 98.1 95.51 113.29 89.25 98.19 52.58"/><path class="cls-1" d="m130.94,72.16l-38-38.17,5.04,12.25c.12.15.19.33.21.52l16.94,41.14,15.81-15.74Z"/><polygon class="cls-1" points="143.66 42.52 76.81 14.66 90.57 28.48 90.58 28.48 132.12 70.21 143.66 42.52"/></g></g></svg>